<?xml version="1.0" encoding="UTF-8" standalone="no"?>
<!DOCTYPE svg PUBLIC "-//W3C//DTD SVG 1.1//EN"
 "http://www.w3.org/Graphics/SVG/1.1/DTD/svg11.dtd">
<!-- Generated by graphviz version 13.1.2 (20250808.2320)
 -->
<!-- Title: G Pages: 1 -->
<svg width="1705pt" height="330pt"
 viewBox="0.00 0.00 1705.00 330.00" xmlns="http://www.w3.org/2000/svg" xmlns:xlink="http://www.w3.org/1999/xlink">
<g id="graph0" class="graph" transform="scale(1 1) rotate(0) translate(4 326)">
<title>G</title>
<polygon fill="white" stroke="none" points="-4,4 -4,-326 1701.1,-326 1701.1,4 -4,4"/>
<g id="clust1" class="cluster">
<title>cluster_1</title>
<path fill="none" stroke="blue" d="M20,-98C20,-98 1677.1,-98 1677.1,-98 1683.1,-98 1689.1,-104 1689.1,-110 1689.1,-110 1689.1,-302 1689.1,-302 1689.1,-308 1683.1,-314 1677.1,-314 1677.1,-314 20,-314 20,-314 14,-314 8,-308 8,-302 8,-302 8,-110 8,-110 8,-104 14,-98 20,-98"/>
<text xml:space="preserve" text-anchor="middle" x="848.55" y="-296.7" font-family="Times New Roman,serif" font-size="14.00">[forward]</text>
</g>
<g id="clust2" class="cluster">
<title>cluster_4</title>
<path fill="none" stroke="blue" d="M269.1,-106C269.1,-106 1105.85,-106 1105.85,-106 1111.85,-106 1117.85,-112 1117.85,-118 1117.85,-118 1117.85,-225 1117.85,-225 1117.85,-231 1111.85,-237 1105.85,-237 1105.85,-237 269.1,-237 269.1,-237 263.1,-237 257.1,-231 257.1,-225 257.1,-225 257.1,-118 257.1,-118 257.1,-112 263.1,-106 269.1,-106"/>
<text xml:space="preserve" text-anchor="middle" x="687.47" y="-219.7" font-family="Times New Roman,serif" font-size="14.00">nn.Module: TwoLayerNet_0</text>
</g>
<!-- 2 -->
<g id="node1" class="node">
<title>2</title>
<polygon fill="none" stroke="black" points="77,-177 16,-177 16,-141 77,-141 77,-177"/>
<text xml:space="preserve" text-anchor="middle" x="46.5" y="-153.57" font-family="Arial" font-size="14.00">aten::to</text>
</g>
<!-- 21 -->
<g id="node12" class="node">
<title>21</title>
<ellipse fill="none" stroke="black" cx="171.05" cy="-159" rx="58.05" ry="18"/>
<text xml:space="preserve" text-anchor="middle" x="171.05" y="-153.57" font-family="Arial" font-size="14.00">[10,1,28,28]</text>
</g>
<!-- 2&#45;&gt;21 -->
<g id="edge1" class="edge">
<title>2&#45;&gt;21</title>
<path fill="none" stroke="black" d="M77.48,-159C84.79,-159 92.91,-159 101.21,-159"/>
<polygon fill="black" stroke="black" points="101.09,-162.5 111.09,-159 101.09,-155.5 101.09,-162.5"/>
</g>
<!-- 3 -->
<g id="node2" class="node">
<title>3</title>
<polygon fill="none" stroke="black" points="958.29,-281 897.29,-281 897.29,-245 958.29,-245 958.29,-281"/>
<text xml:space="preserve" text-anchor="middle" x="927.79" y="-257.57" font-family="Arial" font-size="14.00">aten::to</text>
</g>
<!-- 22 -->
<g id="node13" class="node">
<title>22</title>
<ellipse fill="none" stroke="black" cx="1071.76" cy="-263" rx="27" ry="18"/>
<text xml:space="preserve" text-anchor="middle" x="1071.76" y="-257.57" font-family="Arial" font-size="14.00">[10]</text>
</g>
<!-- 3&#45;&gt;22 -->
<g id="edge2" class="edge">
<title>3&#45;&gt;22</title>
<path fill="none" stroke="black" d="M958.56,-263C980.26,-263 1009.82,-263 1033.16,-263"/>
<polygon fill="black" stroke="black" points="1032.87,-266.5 1042.87,-263 1032.87,-259.5 1032.87,-266.5"/>
</g>
<!-- 5 -->
<g id="node3" class="node">
<title>5</title>
<polygon fill="none" stroke="black" points="373.35,-204 296.6,-204 296.6,-168 373.35,-168 373.35,-204"/>
<text xml:space="preserve" text-anchor="middle" x="334.97" y="-180.57" font-family="Arial" font-size="14.00">aten::view</text>
</g>
<!-- 6 -->
<g id="node4" class="node">
<title>6</title>
<polygon fill="none" stroke="black" points="404.85,-150 265.1,-150 265.1,-114 404.85,-114 404.85,-150"/>
<text xml:space="preserve" text-anchor="middle" x="334.97" y="-126.58" font-family="Arial" font-size="14.00">nn.Module: Linear_0</text>
</g>
<!-- 8 -->
<g id="node7" class="node">
<title>8</title>
<ellipse fill="none" stroke="black" cx="483.93" cy="-132" rx="43.08" ry="18"/>
<text xml:space="preserve" text-anchor="middle" x="483.93" y="-126.58" font-family="Arial" font-size="14.00">[10,128]</text>
</g>
<!-- 6&#45;&gt;8 -->
<g id="edge3" class="edge">
<title>6&#45;&gt;8</title>
<path fill="none" stroke="black" d="M405.15,-132C413.16,-132 421.23,-132 429,-132"/>
<polygon fill="black" stroke="black" points="428.98,-135.5 438.98,-132 428.98,-128.5 428.98,-135.5"/>
</g>
<!-- 9 -->
<g id="node5" class="node">
<title>9</title>
<polygon fill="none" stroke="black" points="699.76,-150 563.01,-150 563.01,-114 699.76,-114 699.76,-150"/>
<text xml:space="preserve" text-anchor="middle" x="631.38" y="-126.58" font-family="Arial" font-size="14.00">nn.Module: ReLU_0</text>
</g>
<!-- 11 -->
<g id="node8" class="node">
<title>11</title>
<ellipse fill="none" stroke="black" cx="778.84" cy="-132" rx="43.08" ry="18"/>
<text xml:space="preserve" text-anchor="middle" x="778.84" y="-126.58" font-family="Arial" font-size="14.00">[10,128]</text>
</g>
<!-- 9&#45;&gt;11 -->
<g id="edge4" class="edge">
<title>9&#45;&gt;11</title>
<path fill="none" stroke="black" d="M700,-132C707.98,-132 716.05,-132 723.81,-132"/>
<polygon fill="black" stroke="black" points="723.78,-135.5 733.78,-132 723.78,-128.5 723.78,-135.5"/>
</g>
<!-- 12 -->
<g id="node6" class="node">
<title>12</title>
<polygon fill="none" stroke="black" points="997.67,-150 857.92,-150 857.92,-114 997.67,-114 997.67,-150"/>
<text xml:space="preserve" text-anchor="middle" x="927.79" y="-126.58" font-family="Arial" font-size="14.00">nn.Module: Linear_1</text>
</g>
<!-- 14 -->
<g id="node9" class="node">
<title>14</title>
<ellipse fill="none" stroke="black" cx="1071.76" cy="-159" rx="38.09" ry="18"/>
<text xml:space="preserve" text-anchor="middle" x="1071.76" y="-153.57" font-family="Arial" font-size="14.00">[10,10]</text>
</g>
<!-- 12&#45;&gt;14 -->
<g id="edge5" class="edge">
<title>12&#45;&gt;14</title>
<path fill="none" stroke="black" d="M998.11,-145.18C1007.11,-146.9 1016.15,-148.61 1024.64,-150.23"/>
<polygon fill="black" stroke="black" points="1023.87,-153.64 1034.35,-152.07 1025.18,-146.77 1023.87,-153.64"/>
</g>
<!-- 8&#45;&gt;9 -->
<g id="edge6" class="edge">
<title>8&#45;&gt;9</title>
<path fill="none" stroke="black" d="M527.39,-132C535,-132 543.15,-132 551.41,-132"/>
<polygon fill="black" stroke="black" points="551.18,-135.5 561.18,-132 551.18,-128.5 551.18,-135.5"/>
</g>
<!-- 11&#45;&gt;12 -->
<g id="edge7" class="edge">
<title>11&#45;&gt;12</title>
<path fill="none" stroke="black" d="M822.34,-132C829.92,-132 838.04,-132 846.27,-132"/>
<polygon fill="black" stroke="black" points="846.02,-135.5 856.02,-132 846.02,-128.5 846.02,-135.5"/>
</g>
<!-- 15 -->
<g id="node10" class="node">
<title>15</title>
<polygon fill="none" stroke="black" points="1358.35,-229 1145.85,-229 1145.85,-193 1358.35,-193 1358.35,-229"/>
<text xml:space="preserve" text-anchor="middle" x="1252.1" y="-205.57" font-family="Arial" font-size="14.00">nn.Module: CrossEntropyLoss_0</text>
</g>
<!-- 14&#45;&gt;15 -->
<g id="edge8" class="edge">
<title>14&#45;&gt;15</title>
<path fill="none" stroke="black" d="M1104.64,-168.3C1124.72,-174.15 1151.51,-181.96 1176.68,-189.3"/>
<polygon fill="black" stroke="black" points="1175.69,-192.66 1186.27,-192.1 1177.65,-185.94 1175.69,-192.66"/>
</g>
<!-- 18 -->
<g id="node15" class="node">
<title>18</title>
<ellipse fill="none" stroke="black" cx="1421.35" cy="-211" rx="27" ry="18"/>
<text xml:space="preserve" text-anchor="middle" x="1421.35" y="-205.57" font-family="Arial" font-size="14.00">[]</text>
</g>
<!-- 15&#45;&gt;18 -->
<g id="edge9" class="edge">
<title>15&#45;&gt;18</title>
<path fill="none" stroke="black" d="M1358.55,-211C1367.01,-211 1375.15,-211 1382.58,-211"/>
<polygon fill="black" stroke="black" points="1382.49,-214.5 1392.49,-211 1382.49,-207.5 1382.49,-214.5"/>
</g>
<!-- 20 -->
<g id="node11" class="node">
<title>20</title>
<polygon fill="none" stroke="black" points="1591.1,-229 1484.35,-229 1484.35,-193 1591.1,-193 1591.1,-229"/>
<text xml:space="preserve" text-anchor="middle" x="1537.72" y="-205.57" font-family="Arial" font-size="14.00">aten::ones_like</text>
</g>
<!-- 23 -->
<g id="node14" class="node">
<title>23</title>
<ellipse fill="none" stroke="black" cx="1654.1" cy="-211" rx="27" ry="18"/>
<text xml:space="preserve" text-anchor="middle" x="1654.1" y="-205.57" font-family="Arial" font-size="14.00">[]</text>
</g>
<!-- 20&#45;&gt;23 -->
<g id="edge10" class="edge">
<title>20&#45;&gt;23</title>
<path fill="none" stroke="black" d="M1591.56,-211C1599.55,-211 1607.65,-211 1615.24,-211"/>
<polygon fill="black" stroke="black" points="1615.14,-214.5 1625.14,-211 1615.14,-207.5 1615.14,-214.5"/>
</g>
<!-- 21&#45;&gt;5 -->
<g id="edge11" class="edge">
<title>21&#45;&gt;5</title>
<path fill="none" stroke="black" d="M222.84,-167.47C242.69,-170.78 265.36,-174.56 285.03,-177.84"/>
<polygon fill="black" stroke="black" points="284.28,-181.26 294.72,-179.45 285.43,-174.36 284.28,-181.26"/>
</g>
<!-- 21&#45;&gt;6 -->
<g id="edge12" class="edge">
<title>21&#45;&gt;6</title>
<path fill="none" stroke="black" d="M222.84,-150.53C232.58,-148.91 243,-147.17 253.41,-145.43"/>
<polygon fill="black" stroke="black" points="253.89,-148.9 263.18,-143.8 252.74,-142 253.89,-148.9"/>
</g>
<!-- 22&#45;&gt;15 -->
<g id="edge13" class="edge">
<title>22&#45;&gt;15</title>
<path fill="none" stroke="black" d="M1096.81,-255.99C1117.47,-249.96 1148.37,-240.95 1177.11,-232.57"/>
<polygon fill="black" stroke="black" points="1177.92,-235.98 1186.54,-229.82 1175.96,-229.26 1177.92,-235.98"/>
</g>
<!-- 18&#45;&gt;20 -->
<g id="edge14" class="edge">
<title>18&#45;&gt;20</title>
<path fill="none" stroke="black" d="M1448.59,-211C1455.93,-211 1464.24,-211 1472.75,-211"/>
<polygon fill="black" stroke="black" points="1472.48,-214.5 1482.48,-211 1472.48,-207.5 1472.48,-214.5"/>
</g>
<!-- 24 -->
<g id="node16" class="node">
<title>24</title>
<ellipse fill="none" stroke="black" cx="171.05" cy="-72" rx="48.07" ry="18"/>
<text xml:space="preserve" text-anchor="middle" x="171.05" y="-66.58" font-family="Arial" font-size="14.00">[128,784]</text>
</g>
<!-- 24&#45;&gt;6 -->
<g id="edge15" class="edge">
<title>24&#45;&gt;6</title>
<path fill="none" stroke="black" d="M205.99,-84.58C225.53,-91.82 250.65,-101.13 273.46,-109.58"/>
<polygon fill="black" stroke="black" points="272.08,-112.8 282.67,-112.99 274.51,-106.23 272.08,-112.8"/>
</g>
<!-- 25 -->
<g id="node17" class="node">
<title>25</title>
<ellipse fill="none" stroke="black" cx="171.05" cy="-18" rx="30.61" ry="18"/>
<text xml:space="preserve" text-anchor="middle" x="171.05" y="-12.57" font-family="Arial" font-size="14.00">[128]</text>
</g>
<!-- 25&#45;&gt;6 -->
<g id="edge16" class="edge">
<title>25&#45;&gt;6</title>
<path fill="none" stroke="black" d="M196.92,-28.14C207.19,-32.73 219.03,-38.58 229.1,-45 257.25,-62.94 286.24,-87.54 306.58,-106"/>
<polygon fill="black" stroke="black" points="304.17,-108.54 313.9,-112.73 308.91,-103.38 304.17,-108.54"/>
</g>
<!-- 26 -->
<g id="node18" class="node">
<title>26</title>
<ellipse fill="none" stroke="black" cx="778.84" cy="-72" rx="43.08" ry="18"/>
<text xml:space="preserve" text-anchor="middle" x="778.84" y="-66.58" font-family="Arial" font-size="14.00">[10,128]</text>
</g>
<!-- 26&#45;&gt;12 -->
<g id="edge17" class="edge">
<title>26&#45;&gt;12</title>
<path fill="none" stroke="black" d="M810.65,-84.58C828.13,-91.72 850.56,-100.87 871.03,-109.23"/>
<polygon fill="black" stroke="black" points="869.54,-112.4 880.12,-112.94 872.18,-105.92 869.54,-112.4"/>
</g>
<!-- 27 -->
<g id="node19" class="node">
<title>27</title>
<ellipse fill="none" stroke="black" cx="778.84" cy="-18" rx="27" ry="18"/>
<text xml:space="preserve" text-anchor="middle" x="778.84" y="-12.57" font-family="Arial" font-size="14.00">[10]</text>
</g>
<!-- 27&#45;&gt;12 -->
<g id="edge18" class="edge">
<title>27&#45;&gt;12</title>
<path fill="none" stroke="black" d="M799.44,-29.88C806.64,-34.43 814.77,-39.77 821.92,-45 848.37,-64.34 876.89,-88.22 897.51,-106.07"/>
<polygon fill="black" stroke="black" points="895.13,-108.63 904.97,-112.56 899.73,-103.36 895.13,-108.63"/>
</g>
</g>
</svg>
