<?xml version="1.0" encoding="UTF-8" standalone="no"?>
<!DOCTYPE svg PUBLIC "-//W3C//DTD SVG 1.1//EN"
 "http://www.w3.org/Graphics/SVG/1.1/DTD/svg11.dtd">
<!-- Generated by graphviz version 13.1.2 (20250808.2320)
 -->
<!-- Title: G Pages: 1 -->
<svg width="209pt" height="206pt"
 viewBox="0.00 0.00 209.00 206.00" xmlns="http://www.w3.org/2000/svg" xmlns:xlink="http://www.w3.org/1999/xlink">
<g id="graph0" class="graph" transform="scale(1 1) rotate(0) translate(4 202)">
<title>G</title>
<polygon fill="white" stroke="none" points="-4,4 -4,-202 204.64,-202 204.64,4 -4,4"/>
<!-- 1 -->
<g id="node1" class="node">
<title>1</title>
<polygon fill="none" stroke="black" points="200.64,-117 132.14,-117 132.14,-81 200.64,-81 200.64,-117"/>
<text xml:space="preserve" text-anchor="middle" x="166.39" y="-93.58" font-family="Arial" font-size="14.00">[forward]</text>
</g>
<!-- 24 -->
<g id="node2" class="node">
<title>24</title>
<ellipse fill="none" stroke="black" cx="48.07" cy="-180" rx="48.07" ry="18"/>
<text xml:space="preserve" text-anchor="middle" x="48.07" y="-174.57" font-family="Arial" font-size="14.00">[128,784]</text>
</g>
<!-- 24&#45;&gt;1 -->
<g id="edge1" class="edge">
<title>24&#45;&gt;1</title>
<path fill="none" stroke="black" d="M76.35,-165.22C82.94,-161.42 89.88,-157.2 96.14,-153 109.12,-144.28 122.82,-133.88 134.57,-124.54"/>
<polygon fill="black" stroke="black" points="136.75,-127.28 142.35,-118.28 132.37,-121.82 136.75,-127.28"/>
</g>
<!-- 25 -->
<g id="node3" class="node">
<title>25</title>
<ellipse fill="none" stroke="black" cx="48.07" cy="-126" rx="30.61" ry="18"/>
<text xml:space="preserve" text-anchor="middle" x="48.07" y="-120.58" font-family="Arial" font-size="14.00">[128]</text>
</g>
<!-- 25&#45;&gt;1 -->
<g id="edge2" class="edge">
<title>25&#45;&gt;1</title>
<path fill="none" stroke="black" d="M76.93,-119.53C90.11,-116.47 106.16,-112.75 120.96,-109.31"/>
<polygon fill="black" stroke="black" points="121.53,-112.77 130.48,-107.1 119.95,-105.95 121.53,-112.77"/>
</g>
<!-- 26 -->
<g id="node4" class="node">
<title>26</title>
<ellipse fill="none" stroke="black" cx="48.07" cy="-72" rx="43.08" ry="18"/>
<text xml:space="preserve" text-anchor="middle" x="48.07" y="-66.58" font-family="Arial" font-size="14.00">[10,128]</text>
</g>
<!-- 26&#45;&gt;1 -->
<g id="edge3" class="edge">
<title>26&#45;&gt;1</title>
<path fill="none" stroke="black" d="M86.51,-80.69C97.47,-83.24 109.56,-86.04 120.91,-88.68"/>
<polygon fill="black" stroke="black" points="119.94,-92.04 130.47,-90.89 121.52,-85.22 119.94,-92.04"/>
</g>
<!-- 27 -->
<g id="node5" class="node">
<title>27</title>
<ellipse fill="none" stroke="black" cx="48.07" cy="-18" rx="27" ry="18"/>
<text xml:space="preserve" text-anchor="middle" x="48.07" y="-12.57" font-family="Arial" font-size="14.00">[10]</text>
</g>
<!-- 27&#45;&gt;1 -->
<g id="edge4" class="edge">
<title>27&#45;&gt;1</title>
<path fill="none" stroke="black" d="M69.61,-28.95C78,-33.63 87.69,-39.33 96.14,-45 109.12,-53.72 122.82,-64.12 134.57,-73.46"/>
<polygon fill="black" stroke="black" points="132.37,-76.18 142.35,-79.72 136.75,-70.72 132.37,-76.18"/>
</g>
</g>
</svg>
