<?xml version="1.0" encoding="UTF-8" standalone="no"?>
<!DOCTYPE svg PUBLIC "-//W3C//DTD SVG 1.1//EN"
 "http://www.w3.org/Graphics/SVG/1.1/DTD/svg11.dtd">
<!-- Generated by graphviz version 13.1.2 (20250808.2320)
 -->
<!-- Title: G Pages: 1 -->
<svg width="1154pt" height="353pt"
 viewBox="0.00 0.00 1154.00 353.00" xmlns="http://www.w3.org/2000/svg" xmlns:xlink="http://www.w3.org/1999/xlink">
<g id="graph0" class="graph" transform="scale(1 1) rotate(0) translate(4 349)">
<title>G</title>
<polygon fill="white" stroke="none" points="-4,4 -4,-349 1150.28,-349 1150.28,4 -4,4"/>
<g id="clust1" class="cluster">
<title>cluster_1</title>
<path fill="none" stroke="blue" d="M20,-206C20,-206 1126.28,-206 1126.28,-206 1132.28,-206 1138.28,-212 1138.28,-218 1138.28,-218 1138.28,-325 1138.28,-325 1138.28,-331 1132.28,-337 1126.28,-337 1126.28,-337 20,-337 20,-337 14,-337 8,-331 8,-325 8,-325 8,-218 8,-218 8,-212 14,-206 20,-206"/>
<text xml:space="preserve" text-anchor="middle" x="573.14" y="-319.7" font-family="Times New Roman,serif" font-size="14.00">[forward]</text>
</g>
<!-- 2 -->
<g id="node1" class="node">
<title>2</title>
<polygon fill="none" stroke="black" points="77,-252 16,-252 16,-216 77,-216 77,-252"/>
<text xml:space="preserve" text-anchor="middle" x="46.5" y="-228.57" font-family="Arial" font-size="14.00">aten::to</text>
</g>
<!-- 21 -->
<g id="node6" class="node">
<title>21</title>
<ellipse fill="none" stroke="black" cx="171.05" cy="-234" rx="58.05" ry="18"/>
<text xml:space="preserve" text-anchor="middle" x="171.05" y="-228.57" font-family="Arial" font-size="14.00">[10,1,28,28]</text>
</g>
<!-- 2&#45;&gt;21 -->
<g id="edge1" class="edge">
<title>2&#45;&gt;21</title>
<path fill="none" stroke="black" d="M77.48,-234C84.79,-234 92.91,-234 101.21,-234"/>
<polygon fill="black" stroke="black" points="101.09,-237.5 111.09,-234 101.09,-230.5 101.09,-237.5"/>
</g>
<!-- 3 -->
<g id="node2" class="node">
<title>3</title>
<polygon fill="none" stroke="black" points="386.47,-304 325.47,-304 325.47,-268 386.47,-268 386.47,-304"/>
<text xml:space="preserve" text-anchor="middle" x="355.97" y="-280.57" font-family="Arial" font-size="14.00">aten::to</text>
</g>
<!-- 22 -->
<g id="node7" class="node">
<title>22</title>
<ellipse fill="none" stroke="black" cx="520.94" cy="-286" rx="27" ry="18"/>
<text xml:space="preserve" text-anchor="middle" x="520.94" y="-280.57" font-family="Arial" font-size="14.00">[10]</text>
</g>
<!-- 3&#45;&gt;22 -->
<g id="edge2" class="edge">
<title>3&#45;&gt;22</title>
<path fill="none" stroke="black" d="M386.86,-286C413.68,-286 453.15,-286 482.15,-286"/>
<polygon fill="black" stroke="black" points="481.96,-289.5 491.96,-286 481.96,-282.5 481.96,-289.5"/>
</g>
<!-- 4 -->
<g id="node3" class="node">
<title>4</title>
<polygon fill="none" stroke="black" points="446.85,-250 265.1,-250 265.1,-214 446.85,-214 446.85,-250"/>
<text xml:space="preserve" text-anchor="middle" x="355.97" y="-226.57" font-family="Arial" font-size="14.00">nn.Module: TwoLayerNet_0</text>
</g>
<!-- 14 -->
<g id="node9" class="node">
<title>14</title>
<ellipse fill="none" stroke="black" cx="520.94" cy="-232" rx="38.09" ry="18"/>
<text xml:space="preserve" text-anchor="middle" x="520.94" y="-226.57" font-family="Arial" font-size="14.00">[10,10]</text>
</g>
<!-- 4&#45;&gt;14 -->
<g id="edge3" class="edge">
<title>4&#45;&gt;14</title>
<path fill="none" stroke="black" d="M447.04,-232C455.35,-232 463.54,-232 471.26,-232"/>
<polygon fill="black" stroke="black" points="471.05,-235.5 481.05,-232 471.05,-228.5 471.05,-235.5"/>
</g>
<!-- 15 -->
<g id="node4" class="node">
<title>15</title>
<polygon fill="none" stroke="black" points="807.53,-277 595.03,-277 595.03,-241 807.53,-241 807.53,-277"/>
<text xml:space="preserve" text-anchor="middle" x="701.28" y="-253.57" font-family="Arial" font-size="14.00">nn.Module: CrossEntropyLoss_0</text>
</g>
<!-- 18 -->
<g id="node10" class="node">
<title>18</title>
<ellipse fill="none" stroke="black" cx="870.53" cy="-259" rx="27" ry="18"/>
<text xml:space="preserve" text-anchor="middle" x="870.53" y="-253.57" font-family="Arial" font-size="14.00">[]</text>
</g>
<!-- 15&#45;&gt;18 -->
<g id="edge4" class="edge">
<title>15&#45;&gt;18</title>
<path fill="none" stroke="black" d="M807.73,-259C816.19,-259 824.33,-259 831.76,-259"/>
<polygon fill="black" stroke="black" points="831.67,-262.5 841.67,-259 831.67,-255.5 831.67,-262.5"/>
</g>
<!-- 20 -->
<g id="node5" class="node">
<title>20</title>
<polygon fill="none" stroke="black" points="1040.28,-277 933.53,-277 933.53,-241 1040.28,-241 1040.28,-277"/>
<text xml:space="preserve" text-anchor="middle" x="986.9" y="-253.57" font-family="Arial" font-size="14.00">aten::ones_like</text>
</g>
<!-- 23 -->
<g id="node8" class="node">
<title>23</title>
<ellipse fill="none" stroke="black" cx="1103.28" cy="-259" rx="27" ry="18"/>
<text xml:space="preserve" text-anchor="middle" x="1103.28" y="-253.57" font-family="Arial" font-size="14.00">[]</text>
</g>
<!-- 20&#45;&gt;23 -->
<g id="edge5" class="edge">
<title>20&#45;&gt;23</title>
<path fill="none" stroke="black" d="M1040.74,-259C1048.73,-259 1056.83,-259 1064.42,-259"/>
<polygon fill="black" stroke="black" points="1064.32,-262.5 1074.32,-259 1064.32,-255.5 1064.32,-262.5"/>
</g>
<!-- 21&#45;&gt;4 -->
<g id="edge6" class="edge">
<title>21&#45;&gt;4</title>
<path fill="none" stroke="black" d="M229.43,-233.37C237.05,-233.29 245.03,-233.2 253.13,-233.11"/>
<polygon fill="black" stroke="black" points="253.15,-236.61 263.12,-233 253.08,-229.61 253.15,-236.61"/>
</g>
<!-- 22&#45;&gt;15 -->
<g id="edge7" class="edge">
<title>22&#45;&gt;15</title>
<path fill="none" stroke="black" d="M547.49,-282.13C557.75,-280.58 570.36,-278.67 583.88,-276.62"/>
<polygon fill="black" stroke="black" points="584.05,-280.14 593.41,-275.18 583,-273.22 584.05,-280.14"/>
</g>
<!-- 14&#45;&gt;15 -->
<g id="edge8" class="edge">
<title>14&#45;&gt;15</title>
<path fill="none" stroke="black" d="M557.6,-237.4C565.56,-238.6 574.43,-239.95 583.74,-241.36"/>
<polygon fill="black" stroke="black" points="582.93,-244.77 593.34,-242.81 583.98,-237.85 582.93,-244.77"/>
</g>
<!-- 18&#45;&gt;20 -->
<g id="edge9" class="edge">
<title>18&#45;&gt;20</title>
<path fill="none" stroke="black" d="M897.77,-259C905.11,-259 913.42,-259 921.93,-259"/>
<polygon fill="black" stroke="black" points="921.66,-262.5 931.66,-259 921.66,-255.5 921.66,-262.5"/>
</g>
<!-- 24 -->
<g id="node11" class="node">
<title>24</title>
<ellipse fill="none" stroke="black" cx="171.05" cy="-180" rx="48.07" ry="18"/>
<text xml:space="preserve" text-anchor="middle" x="171.05" y="-174.57" font-family="Arial" font-size="14.00">[128,784]</text>
</g>
<!-- 24&#45;&gt;4 -->
<g id="edge10" class="edge">
<title>24&#45;&gt;4</title>
<path fill="none" stroke="black" d="M209.95,-190.77C230.01,-196.48 255.37,-203.68 279.25,-210.47"/>
<polygon fill="black" stroke="black" points="278.07,-213.78 288.64,-213.14 279.98,-207.04 278.07,-213.78"/>
</g>
<!-- 25 -->
<g id="node12" class="node">
<title>25</title>
<ellipse fill="none" stroke="black" cx="171.05" cy="-126" rx="30.61" ry="18"/>
<text xml:space="preserve" text-anchor="middle" x="171.05" y="-120.58" font-family="Arial" font-size="14.00">[128]</text>
</g>
<!-- 25&#45;&gt;4 -->
<g id="edge11" class="edge">
<title>25&#45;&gt;4</title>
<path fill="none" stroke="black" d="M196.24,-136.68C206.51,-141.41 218.53,-147.21 229.1,-153 260.06,-169.96 293.89,-191.36 318.67,-207.61"/>
<polygon fill="black" stroke="black" points="316.49,-210.37 326.77,-212.95 320.35,-204.53 316.49,-210.37"/>
</g>
<!-- 26 -->
<g id="node13" class="node">
<title>26</title>
<ellipse fill="none" stroke="black" cx="171.05" cy="-72" rx="43.08" ry="18"/>
<text xml:space="preserve" text-anchor="middle" x="171.05" y="-66.58" font-family="Arial" font-size="14.00">[10,128]</text>
</g>
<!-- 26&#45;&gt;4 -->
<g id="edge12" class="edge">
<title>26&#45;&gt;4</title>
<path fill="none" stroke="black" d="M203.43,-84.31C212.11,-88.38 221.29,-93.34 229.1,-99 271.36,-129.65 311.21,-175.71 334.34,-204.8"/>
<polygon fill="black" stroke="black" points="331.38,-206.7 340.31,-212.41 336.89,-202.38 331.38,-206.7"/>
</g>
<!-- 27 -->
<g id="node14" class="node">
<title>27</title>
<ellipse fill="none" stroke="black" cx="171.05" cy="-18" rx="27" ry="18"/>
<text xml:space="preserve" text-anchor="middle" x="171.05" y="-12.57" font-family="Arial" font-size="14.00">[10]</text>
</g>
<!-- 27&#45;&gt;4 -->
<g id="edge13" class="edge">
<title>27&#45;&gt;4</title>
<path fill="none" stroke="black" d="M195.64,-25.84C206.63,-30.28 219.38,-36.64 229.1,-45 281.99,-90.48 322.25,-163.28 341.83,-203.31"/>
<polygon fill="black" stroke="black" points="338.67,-204.81 346.14,-212.32 344.98,-201.79 338.67,-204.81"/>
</g>
</g>
</svg>
