<?xml version="1.0" encoding="UTF-8" standalone="no"?>
<!DOCTYPE svg PUBLIC "-//W3C//DTD SVG 1.1//EN"
 "http://www.w3.org/Graphics/SVG/1.1/DTD/svg11.dtd">
<!-- Generated by graphviz version 13.1.2 (20250808.2320)
 -->
<!-- Title: G Pages: 1 -->
<svg width="1616pt" height="340pt"
 viewBox="0.00 0.00 1616.00 340.00" xmlns="http://www.w3.org/2000/svg" xmlns:xlink="http://www.w3.org/1999/xlink">
<g id="graph0" class="graph" transform="scale(1 1) rotate(0) translate(4 336)">
<title>G</title>
<polygon fill="white" stroke="none" points="-4,4 -4,-336 1612.28,-336 1612.28,4 -4,4"/>
<g id="clust1" class="cluster">
<title>cluster_1</title>
<path fill="none" stroke="blue" d="M20,-98C20,-98 1588.28,-98 1588.28,-98 1594.28,-98 1600.28,-104 1600.28,-110 1600.28,-110 1600.28,-312 1600.28,-312 1600.28,-318 1594.28,-324 1588.28,-324 1588.28,-324 20,-324 20,-324 14,-324 8,-318 8,-312 8,-312 8,-110 8,-110 8,-104 14,-98 20,-98"/>
<text xml:space="preserve" text-anchor="middle" x="804.14" y="-306.7" font-family="Times New Roman,serif" font-size="14.00">[forward]</text>
</g>
<g id="clust2" class="cluster">
<title>cluster_4</title>
<path fill="none" stroke="blue" d="M269.1,-106C269.1,-106 1041.35,-106 1041.35,-106 1047.35,-106 1053.35,-112 1053.35,-118 1053.35,-118 1053.35,-225 1053.35,-225 1053.35,-231 1047.35,-237 1041.35,-237 1041.35,-237 269.1,-237 269.1,-237 263.1,-237 257.1,-231 257.1,-225 257.1,-225 257.1,-118 257.1,-118 257.1,-112 263.1,-106 269.1,-106"/>
<text xml:space="preserve" text-anchor="middle" x="655.22" y="-219.7" font-family="Times New Roman,serif" font-size="14.00">nn.Module: TwoLayerNet_0</text>
</g>
<g id="clust3" class="cluster">
<title>cluster_9</title>
<path fill="none" stroke="blue" d="M567.01,-114C567.01,-114 753.42,-114 753.42,-114 759.42,-114 765.42,-120 765.42,-126 765.42,-126 765.42,-179 765.42,-179 765.42,-185 759.42,-191 753.42,-191 753.42,-191 567.01,-191 567.01,-191 561.01,-191 555.01,-185 555.01,-179 555.01,-179 555.01,-126 555.01,-126 555.01,-120 561.01,-114 567.01,-114"/>
<text xml:space="preserve" text-anchor="middle" x="660.21" y="-173.7" font-family="Times New Roman,serif" font-size="14.00">nn.Module: ReLU_0</text>
</g>
<g id="clust4" class="cluster">
<title>cluster_15</title>
<path fill="none" stroke="blue" d="M1085.35,-106C1085.35,-106 1355.53,-106 1355.53,-106 1361.53,-106 1367.53,-112 1367.53,-118 1367.53,-118 1367.53,-279 1367.53,-279 1367.53,-285 1361.53,-291 1355.53,-291 1355.53,-291 1085.35,-291 1085.35,-291 1079.35,-291 1073.35,-285 1073.35,-279 1073.35,-279 1073.35,-118 1073.35,-118 1073.35,-112 1079.35,-106 1085.35,-106"/>
<text xml:space="preserve" text-anchor="middle" x="1220.44" y="-273.7" font-family="Times New Roman,serif" font-size="14.00">nn.Module: CrossEntropyLoss_0</text>
</g>
<!-- 2 -->
<g id="node1" class="node">
<title>2</title>
<polygon fill="none" stroke="black" points="77,-177 16,-177 16,-141 77,-141 77,-177"/>
<text xml:space="preserve" text-anchor="middle" x="46.5" y="-153.57" font-family="Arial" font-size="14.00">aten::to</text>
</g>
<!-- 21 -->
<g id="node15" class="node">
<title>21</title>
<ellipse fill="none" stroke="black" cx="171.05" cy="-159" rx="58.05" ry="18"/>
<text xml:space="preserve" text-anchor="middle" x="171.05" y="-153.57" font-family="Arial" font-size="14.00">[10,1,28,28]</text>
</g>
<!-- 2&#45;&gt;21 -->
<g id="edge1" class="edge">
<title>2&#45;&gt;21</title>
<path fill="none" stroke="black" d="M77.48,-159C84.79,-159 92.91,-159 101.21,-159"/>
<polygon fill="black" stroke="black" points="101.09,-162.5 111.09,-159 101.09,-155.5 101.09,-162.5"/>
</g>
<!-- 3 -->
<g id="node2" class="node">
<title>3</title>
<polygon fill="none" stroke="black" points="893.79,-281 832.79,-281 832.79,-245 893.79,-245 893.79,-281"/>
<text xml:space="preserve" text-anchor="middle" x="863.29" y="-257.57" font-family="Arial" font-size="14.00">aten::to</text>
</g>
<!-- 22 -->
<g id="node16" class="node">
<title>22</title>
<ellipse fill="none" stroke="black" cx="1007.26" cy="-263" rx="27" ry="18"/>
<text xml:space="preserve" text-anchor="middle" x="1007.26" y="-257.57" font-family="Arial" font-size="14.00">[10]</text>
</g>
<!-- 3&#45;&gt;22 -->
<g id="edge2" class="edge">
<title>3&#45;&gt;22</title>
<path fill="none" stroke="black" d="M894.06,-263C915.76,-263 945.32,-263 968.66,-263"/>
<polygon fill="black" stroke="black" points="968.37,-266.5 978.37,-263 968.37,-259.5 968.37,-266.5"/>
</g>
<!-- 5 -->
<g id="node3" class="node">
<title>5</title>
<polygon fill="none" stroke="black" points="373.35,-204 296.6,-204 296.6,-168 373.35,-168 373.35,-204"/>
<text xml:space="preserve" text-anchor="middle" x="334.97" y="-180.57" font-family="Arial" font-size="14.00">aten::view</text>
</g>
<!-- 6 -->
<g id="node4" class="node">
<title>6</title>
<polygon fill="none" stroke="black" points="404.85,-150 265.1,-150 265.1,-114 404.85,-114 404.85,-150"/>
<text xml:space="preserve" text-anchor="middle" x="334.97" y="-126.58" font-family="Arial" font-size="14.00">nn.Module: Linear_0</text>
</g>
<!-- 8 -->
<g id="node8" class="node">
<title>8</title>
<ellipse fill="none" stroke="black" cx="483.93" cy="-136" rx="43.08" ry="18"/>
<text xml:space="preserve" text-anchor="middle" x="483.93" y="-130.57" font-family="Arial" font-size="14.00">[10,128]</text>
</g>
<!-- 6&#45;&gt;8 -->
<g id="edge3" class="edge">
<title>6&#45;&gt;8</title>
<path fill="none" stroke="black" d="M405.15,-133.88C413.16,-134.1 421.23,-134.32 429,-134.53"/>
<polygon fill="black" stroke="black" points="428.88,-138.03 438.98,-134.8 429.07,-131.03 428.88,-138.03"/>
</g>
<!-- 10 -->
<g id="node5" class="node">
<title>10</title>
<polygon fill="none" stroke="black" points="635.26,-158 563.01,-158 563.01,-122 635.26,-122 635.26,-158"/>
<text xml:space="preserve" text-anchor="middle" x="599.13" y="-134.57" font-family="Arial" font-size="14.00">aten::relu</text>
</g>
<!-- 11 -->
<g id="node6" class="node">
<title>11</title>
<ellipse fill="none" stroke="black" cx="714.34" cy="-140" rx="43.08" ry="18"/>
<text xml:space="preserve" text-anchor="middle" x="714.34" y="-134.57" font-family="Arial" font-size="14.00">[10,128]</text>
</g>
<!-- 10&#45;&gt;11 -->
<g id="edge4" class="edge">
<title>10&#45;&gt;11</title>
<path fill="none" stroke="black" d="M635.64,-140C643.22,-140 651.39,-140 659.49,-140"/>
<polygon fill="black" stroke="black" points="659.3,-143.5 669.3,-140 659.3,-136.5 659.3,-143.5"/>
</g>
<!-- 12 -->
<g id="node7" class="node">
<title>12</title>
<polygon fill="none" stroke="black" points="933.17,-150 793.42,-150 793.42,-114 933.17,-114 933.17,-150"/>
<text xml:space="preserve" text-anchor="middle" x="863.29" y="-126.58" font-family="Arial" font-size="14.00">nn.Module: Linear_1</text>
</g>
<!-- 11&#45;&gt;12 -->
<g id="edge5" class="edge">
<title>11&#45;&gt;12</title>
<path fill="none" stroke="black" d="M757.45,-137.71C765.09,-137.29 773.28,-136.85 781.6,-136.39"/>
<polygon fill="black" stroke="black" points="781.68,-139.89 791.48,-135.86 781.3,-132.9 781.68,-139.89"/>
</g>
<!-- 14 -->
<g id="node9" class="node">
<title>14</title>
<ellipse fill="none" stroke="black" cx="1007.26" cy="-159" rx="38.09" ry="18"/>
<text xml:space="preserve" text-anchor="middle" x="1007.26" y="-153.57" font-family="Arial" font-size="14.00">[10,10]</text>
</g>
<!-- 12&#45;&gt;14 -->
<g id="edge6" class="edge">
<title>12&#45;&gt;14</title>
<path fill="none" stroke="black" d="M933.61,-145.18C942.61,-146.9 951.65,-148.61 960.14,-150.23"/>
<polygon fill="black" stroke="black" points="959.37,-153.64 969.85,-152.07 960.68,-146.77 959.37,-153.64"/>
</g>
<!-- 8&#45;&gt;10 -->
<g id="edge7" class="edge">
<title>8&#45;&gt;10</title>
<path fill="none" stroke="black" d="M527.08,-137.49C534.94,-137.77 543.19,-138.06 551.18,-138.34"/>
<polygon fill="black" stroke="black" points="550.99,-141.84 561.11,-138.69 551.24,-134.84 550.99,-141.84"/>
</g>
<!-- 16 -->
<g id="node10" class="node">
<title>16</title>
<polygon fill="none" stroke="black" points="1247.35,-204 1081.35,-204 1081.35,-168 1247.35,-168 1247.35,-204"/>
<text xml:space="preserve" text-anchor="middle" x="1164.35" y="-180.57" font-family="Arial" font-size="14.00">aten::cross_entropy_loss</text>
</g>
<!-- 14&#45;&gt;16 -->
<g id="edge8" class="edge">
<title>14&#45;&gt;16</title>
<path fill="none" stroke="black" d="M1043.45,-165.13C1051.46,-166.52 1060.33,-168.07 1069.53,-169.67"/>
<polygon fill="black" stroke="black" points="1068.92,-173.11 1079.37,-171.38 1070.12,-166.22 1068.92,-173.11"/>
</g>
<!-- 17 -->
<g id="node11" class="node">
<title>17</title>
<ellipse fill="none" stroke="black" cx="1321.44" cy="-132" rx="38.09" ry="18"/>
<text xml:space="preserve" text-anchor="middle" x="1321.44" y="-126.58" font-family="Arial" font-size="14.00">[10,10]</text>
</g>
<!-- 16&#45;&gt;17 -->
<g id="edge9" class="edge">
<title>16&#45;&gt;17</title>
<path fill="none" stroke="black" d="M1218.29,-167.57C1238.15,-160.65 1260.41,-152.9 1279.07,-146.4"/>
<polygon fill="black" stroke="black" points="1280.16,-149.73 1288.45,-143.14 1277.86,-143.12 1280.16,-149.73"/>
</g>
<!-- 18 -->
<g id="node12" class="node">
<title>18</title>
<ellipse fill="none" stroke="black" cx="1321.44" cy="-186" rx="27" ry="18"/>
<text xml:space="preserve" text-anchor="middle" x="1321.44" y="-180.57" font-family="Arial" font-size="14.00">[]</text>
</g>
<!-- 16&#45;&gt;18 -->
<g id="edge10" class="edge">
<title>16&#45;&gt;18</title>
<path fill="none" stroke="black" d="M1247.44,-186C1259.68,-186 1271.78,-186 1282.5,-186"/>
<polygon fill="black" stroke="black" points="1282.43,-189.5 1292.43,-186 1282.43,-182.5 1282.43,-189.5"/>
</g>
<!-- 19 -->
<g id="node13" class="node">
<title>19</title>
<ellipse fill="none" stroke="black" cx="1321.44" cy="-240" rx="27" ry="18"/>
<text xml:space="preserve" text-anchor="middle" x="1321.44" y="-234.57" font-family="Arial" font-size="14.00">[]</text>
</g>
<!-- 16&#45;&gt;19 -->
<g id="edge11" class="edge">
<title>16&#45;&gt;19</title>
<path fill="none" stroke="black" d="M1218.29,-204.43C1240.84,-212.28 1266.49,-221.22 1286.44,-228.16"/>
<polygon fill="black" stroke="black" points="1285.15,-231.42 1295.75,-231.4 1287.46,-224.81 1285.15,-231.42"/>
</g>
<!-- 20 -->
<g id="node14" class="node">
<title>20</title>
<polygon fill="none" stroke="black" points="1502.28,-204 1395.53,-204 1395.53,-168 1502.28,-168 1502.28,-204"/>
<text xml:space="preserve" text-anchor="middle" x="1448.9" y="-180.57" font-family="Arial" font-size="14.00">aten::ones_like</text>
</g>
<!-- 18&#45;&gt;20 -->
<g id="edge12" class="edge">
<title>18&#45;&gt;20</title>
<path fill="none" stroke="black" d="M1348.74,-186C1359.08,-186 1371.45,-186 1383.88,-186"/>
<polygon fill="black" stroke="black" points="1383.75,-189.5 1393.75,-186 1383.75,-182.5 1383.75,-189.5"/>
</g>
<!-- 23 -->
<g id="node17" class="node">
<title>23</title>
<ellipse fill="none" stroke="black" cx="1565.28" cy="-186" rx="27" ry="18"/>
<text xml:space="preserve" text-anchor="middle" x="1565.28" y="-180.57" font-family="Arial" font-size="14.00">[]</text>
</g>
<!-- 20&#45;&gt;23 -->
<g id="edge13" class="edge">
<title>20&#45;&gt;23</title>
<path fill="none" stroke="black" d="M1502.74,-186C1510.73,-186 1518.83,-186 1526.42,-186"/>
<polygon fill="black" stroke="black" points="1526.32,-189.5 1536.32,-186 1526.32,-182.5 1526.32,-189.5"/>
</g>
<!-- 21&#45;&gt;5 -->
<g id="edge14" class="edge">
<title>21&#45;&gt;5</title>
<path fill="none" stroke="black" d="M222.84,-167.47C242.69,-170.78 265.36,-174.56 285.03,-177.84"/>
<polygon fill="black" stroke="black" points="284.28,-181.26 294.72,-179.45 285.43,-174.36 284.28,-181.26"/>
</g>
<!-- 21&#45;&gt;6 -->
<g id="edge15" class="edge">
<title>21&#45;&gt;6</title>
<path fill="none" stroke="black" d="M222.84,-150.53C232.58,-148.91 243,-147.17 253.41,-145.43"/>
<polygon fill="black" stroke="black" points="253.89,-148.9 263.18,-143.8 252.74,-142 253.89,-148.9"/>
</g>
<!-- 22&#45;&gt;16 -->
<g id="edge16" class="edge">
<title>22&#45;&gt;16</title>
<path fill="none" stroke="black" d="M1029.84,-252.52C1037.29,-248.89 1045.7,-244.78 1053.35,-241 1074.12,-230.74 1097.04,-219.3 1116.56,-209.52"/>
<polygon fill="black" stroke="black" points="1118,-212.71 1125.37,-205.1 1114.87,-206.45 1118,-212.71"/>
</g>
<!-- 24 -->
<g id="node18" class="node">
<title>24</title>
<ellipse fill="none" stroke="black" cx="171.05" cy="-72" rx="48.07" ry="18"/>
<text xml:space="preserve" text-anchor="middle" x="171.05" y="-66.58" font-family="Arial" font-size="14.00">[128,784]</text>
</g>
<!-- 24&#45;&gt;6 -->
<g id="edge17" class="edge">
<title>24&#45;&gt;6</title>
<path fill="none" stroke="black" d="M205.99,-84.58C225.53,-91.82 250.65,-101.13 273.46,-109.58"/>
<polygon fill="black" stroke="black" points="272.08,-112.8 282.67,-112.99 274.51,-106.23 272.08,-112.8"/>
</g>
<!-- 25 -->
<g id="node19" class="node">
<title>25</title>
<ellipse fill="none" stroke="black" cx="171.05" cy="-18" rx="30.61" ry="18"/>
<text xml:space="preserve" text-anchor="middle" x="171.05" y="-12.57" font-family="Arial" font-size="14.00">[128]</text>
</g>
<!-- 25&#45;&gt;6 -->
<g id="edge18" class="edge">
<title>25&#45;&gt;6</title>
<path fill="none" stroke="black" d="M196.92,-28.14C207.19,-32.73 219.03,-38.58 229.1,-45 257.25,-62.94 286.24,-87.54 306.58,-106"/>
<polygon fill="black" stroke="black" points="304.17,-108.54 313.9,-112.73 308.91,-103.38 304.17,-108.54"/>
</g>
<!-- 26 -->
<g id="node20" class="node">
<title>26</title>
<ellipse fill="none" stroke="black" cx="714.34" cy="-72" rx="43.08" ry="18"/>
<text xml:space="preserve" text-anchor="middle" x="714.34" y="-66.58" font-family="Arial" font-size="14.00">[10,128]</text>
</g>
<!-- 26&#45;&gt;12 -->
<g id="edge19" class="edge">
<title>26&#45;&gt;12</title>
<path fill="none" stroke="black" d="M746.15,-84.58C763.63,-91.72 786.06,-100.87 806.53,-109.23"/>
<polygon fill="black" stroke="black" points="805.04,-112.4 815.62,-112.94 807.68,-105.92 805.04,-112.4"/>
</g>
<!-- 27 -->
<g id="node21" class="node">
<title>27</title>
<ellipse fill="none" stroke="black" cx="714.34" cy="-18" rx="27" ry="18"/>
<text xml:space="preserve" text-anchor="middle" x="714.34" y="-12.57" font-family="Arial" font-size="14.00">[10]</text>
</g>
<!-- 27&#45;&gt;12 -->
<g id="edge20" class="edge">
<title>27&#45;&gt;12</title>
<path fill="none" stroke="black" d="M736.96,-28.23C746.04,-32.88 756.53,-38.75 765.42,-45 791.23,-63.16 817.7,-87.39 836.44,-105.67"/>
<polygon fill="black" stroke="black" points="833.82,-108 843.39,-112.54 838.74,-103.02 833.82,-108"/>
</g>
</g>
</svg>
